<?xml version="1.0" encoding="utf-8"?>
<!-- Generator: Adobe Illustrator 24.2.1, SVG Export Plug-In . SVG Version: 6.00 Build 0)  -->
<svg version="1.1"
	 id="Layer_1" xmlns:cc="http://creativecommons.org/ns#" xmlns:dc="http://purl.org/dc/elements/1.1/" xmlns:inkscape="http://www.inkscape.org/namespaces/inkscape" xmlns:rdf="http://www.w3.org/1999/02/22-rdf-syntax-ns#" xmlns:sodipodi="http://sodipodi.sourceforge.net/DTD/sodipodi-0.dtd" xmlns:svg="http://www.w3.org/2000/svg"
	 xmlns="http://www.w3.org/2000/svg" xmlns:xlink="http://www.w3.org/1999/xlink" x="0px" y="0px" viewBox="0 0 16.9 16.9"
	 style="enable-background:new 0 0 16.9 16.9;" xml:space="preserve">
<g transform="translate(0,-280.06665)">
	<path d="M7.7,280.6c-0.4,0-0.8,0.4-0.8,0.8c0,0.4,0.4,0.8,0.8,0.8v0.9c-0.9,0.1-1.8,0.5-2.5,1l-0.6-0.6c0.3-0.3,0.3-0.8,0-1.1
		c-0.3-0.3-0.8-0.3-1.1,0l-1.1,1.1c-0.3,0.3-0.3,0.8,0,1.1c0.3,0.3,0.8,0.3,1.1,0l0.6,0.6c-0.6,0.7-0.9,1.6-1,2.5H2.1
		c0-0.4-0.4-0.8-0.8-0.8s-0.8,0.4-0.8,0.8v1.6c0,0.4,0.4,0.8,0.8,0.8s0.8-0.4,0.8-0.8H3c0.1,0.9,0.5,1.8,1,2.5l-0.6,0.6
		c-0.3-0.3-0.8-0.3-1.1,0c-0.3,0.3-0.3,0.8,0,1.1l1.1,1.1c0.3,0.3,0.8,0.3,1.1,0c0.3-0.3,0.3-0.8,0-1.1l0.6-0.6
		c0.7,0.6,1.6,0.9,2.5,1v0.9c-0.4,0-0.8,0.4-0.8,0.8c0,0.4,0.4,0.8,0.8,0.8h1.6c0.4,0,0.8-0.4,0.8-0.8c0-0.4-0.4-0.8-0.8-0.8V294
		c0.9-0.1,1.8-0.5,2.5-1l0.6,0.6c-0.3,0.3-0.3,0.8,0,1.1s0.8,0.3,1.1,0l1.1-1.1c0.3-0.3,0.3-0.8,0-1.1c-0.3-0.3-0.8-0.3-1.1,0
		l-0.6-0.6c0.6-0.7,0.9-1.6,1-2.5h0.9c0,0.4,0.4,0.8,0.8,0.8s0.8-0.4,0.8-0.8v-1.6c0-0.4-0.4-0.8-0.8-0.8s-0.8,0.4-0.8,0.8H14
		c-0.1-0.9-0.5-1.8-1-2.5l0.6-0.6c0.3,0.3,0.8,0.3,1.1,0c0.3-0.3,0.3-0.8,0-1.1l-1.1-1.1c-0.3-0.3-0.8-0.3-1.1,0s-0.3,0.8,0,1.1
		l-0.6,0.6c-0.7-0.6-1.6-0.9-2.5-1v-0.9c0.4,0,0.8-0.4,0.8-0.8c0-0.4-0.4-0.8-0.8-0.8H7.7z M8.5,284.6c0.1,0,0.3,0.1,0.3,0.3l0,0
		c0,0.1-0.1,0.3-0.3,0.3c0,0,0,0,0,0c-0.1,0-0.3-0.1-0.3-0.3l0,0C8.2,284.7,8.3,284.6,8.5,284.6C8.5,284.6,8.5,284.6,8.5,284.6z
		 M6.6,285.1c0.9,0,1.6,0.7,1.6,1.6s-0.7,1.6-1.6,1.6S5,287.6,5,286.7C5,285.8,5.7,285.1,6.6,285.1z M10.3,285.6
		c0.6,0,1.1,0.5,1.1,1.1s-0.5,1.1-1.1,1.1c-0.6,0-1.1-0.5-1.1-1.1S9.7,285.6,10.3,285.6z M4.8,288.3c0.1,0,0.3,0.1,0.3,0.3l0,0
		c0,0.1-0.1,0.3-0.3,0.3c0,0,0,0,0,0c-0.1,0-0.3-0.1-0.3-0.3l0,0C4.5,288.4,4.6,288.3,4.8,288.3C4.8,288.3,4.8,288.3,4.8,288.3z
		 M8.5,288.3c0.1,0,0.3,0.1,0.3,0.3l0,0c0,0.1-0.1,0.3-0.3,0.3c0,0,0,0,0,0c-0.1,0-0.3-0.1-0.3-0.3l0,0
		C8.2,288.4,8.3,288.3,8.5,288.3C8.5,288.3,8.5,288.3,8.5,288.3z M12.2,288.3c0.1,0,0.3,0.1,0.3,0.3l0,0c0,0.1-0.1,0.3-0.3,0.3
		c0,0,0,0,0,0c-0.1,0-0.3-0.1-0.3-0.3l0,0C11.9,288.4,12,288.3,12.2,288.3C12.2,288.3,12.2,288.3,12.2,288.3z M10.3,288.8
		c0.9,0,1.6,0.7,1.6,1.6s-0.7,1.6-1.6,1.6c-0.9,0-1.6-0.7-1.6-1.6C8.7,289.5,9.4,288.8,10.3,288.8z M6.6,289.3
		c0.6,0,1.1,0.5,1.1,1.1s-0.5,1.1-1.1,1.1c-0.6,0-1.1-0.5-1.1-1.1S6,289.3,6.6,289.3z M8.5,292c0.1,0,0.3,0.1,0.3,0.3l0,0
		c0,0.1-0.1,0.3-0.3,0.3c0,0,0,0,0,0c-0.1,0-0.3-0.1-0.3-0.3l0,0C8.2,292.1,8.3,292,8.5,292C8.5,292,8.5,292,8.5,292z"/>
</g>
</svg>
